.
..............................Site Info...........................

 -   http://www.scenetime.com  *_*    

Scenetime .Always on time . friendly online private torrent community ..

     We care to share . Join us on  http://www.scenetime.com 

    Be the first to get new release at  http://www.scenetime.com

        Seed back for speed


...................................NFO:.................................................                                    .o.       ooooooooo.    o8o   .oooooo..o oooooooooooo 
                                   .888.      `888   `Y88.  `"'  d8P'    `Y8 `888'     `8 
                                  .8"888.      888   .d88' oooo  Y88bo.       888         
                                 .8' `888.     888ooo88P'  `888   `"Y8888o.   888oooo8    
                                .88ooo8888.    888`88b.     888       `"Y88b  888    "    
                               .8'     `888.   888  `88b.   888  oo     .d8P  888       o 
                              o88o     o8888o o888o  o888o o888o 8""88888P'  o888ooooood8 
                                                  

                                                       
TITLE: Taken 2 2012 TS XViD - ARiSE

                                                                                                                 
IMDB: http://www.imdb.com/title/tt1397280/

                                                                                        
SOURCES:
AUDIO - MATiNE
VIDEO - MATiNE                                                                                         


STATS:

Video
ID                               : 0
Format                           : MPEG-4 Visual
Format profile                   : Advanced Simple@L5
Format settings, BVOP            : 2
Format settings, QPel            : No
Format settings, GMC             : No warppoints
Format settings, Matrix          : Default (MPEG)
Muxing mode                      : Packed bitstream
Codec ID                         : XVID
Codec ID/Hint                    : XviD
Duration                         : 1h 26mn
Bit rate                         : 2 143 Kbps
Width                            : 720 pixels
Height                           : 304 pixels
Display aspect ratio             : 2.35:1
Frame rate                       : 25.000 fps
Color space                      : YUV
Chroma subsampling               : 4:2:0
Bit depth                        : 8 bits
Scan type                        : Progressive
Compression mode                 : Lossy
Bits/(Pixel*Frame)               : 0.392
Stream size                      : 1.29 GiB (94%)
Writing library                  : XviD 64

Audio
ID                               : 1
Format                           : MPEG Audio
Format version                   : Version 1
Format profile                   : Layer 3
Mode                             : Joint stereo
Mode extension                   : MS Stereo
Codec ID                         : 55
Codec ID/Hint                    : MP3
Duration                         : 1h 26mn
Bit rate mode                    : Constant
Bit rate                         : 128 Kbps
Channel(s)                       : 2 channels
Sampling rate                    : 44.1 KHz
Compression mode                 : Lossy
Stream size                      : 78.8 MiB (6%)
Alignment                        : Split accross interleaves
Interleave, duration             : 40 ms (1.00 video frame)
Interleave, preload duration     : 500 ms


WORKDONE:

Tweaked the colouring slight,but nothing major...changed the brightness/contrast,aswell as used a smoother
and sharpen.
Audio was nice but seemed too powerful,so tweaked the eq bands and DB-s and resaved to mp3 and remuxed.

SCREENS:

[img]http://i.imgrz.com/WZhmF.png[/img] 
[img]http://i.imgrz.com/ATcOz.png[/img] 
[img]http://i.imgrz.com/DncF.png[/img] 
[img]http://i.imgrz.com/t2Avm.png[/img] 
[img]http://i.imgrz.com/EsJy7.png[/img] 


GREETS: EVERYONE :)